<svg xmlns="http://www.w3.org/2000/svg" width="16" height="16">
  <path d="M 8 0 A 8 8 0 0 0 0 8 A 8 8 0 0 0 8 16 A 8 8 0 0 0 10 15.740234 L 10 13.648438 A 6 6 0 0 1 8 14 A 6 6 0 0 1 2 8 A 6 6 0 0 1 6 2.3515625 L 6 4.5410156 A 4 4 0 0 0 4 8 A 4 4 0 0 0 8 12 A 4 4 0 0 0 10 11.458984 L 10 10 L 11.458984 10 A 4 4 0 0 0 12 8 A 4 4 0 0 0 10 4.5410156 L 10 2.3496094 A 6 6 0 0 1 14 8 A 6 6 0 0 1 13.650391 10 L 15.734375 10 A 8 8 0 0 0 16 8 A 8 8 0 0 0 8 0 z M 7 2 L 9 2 L 9 7 L 7 7 L 7 2 z M 11 11 L 11 16 L 16 16 L 16 11 L 11 11 z M 12 12 L 13 12 L 13 13 L 14 13 L 14 12 L 15 12 L 15 14 L 14 14 L 14 15 L 13 15 L 13 14 L 12 14 L 12 12 z " fill="#c0bfbc" />
</svg>
